<svg width="240" height="320" viewBox="0 0 240 320" fill="none" xmlns="http://www.w3.org/2000/svg">
<path d="M142.786 37.2624C140.954 39.9083 136.698 41.2535 134.122 43.1365C125.788 49.2265 120.144 57.0587 114.15 65.4581C101.563 83.0948 88.8597 100.889 77.9138 119.61C71.8004 130.066 67.0058 140.416 64.7337 152.322C63.4077 159.27 62.7088 166.825 62.1638 173.909C60.8086 191.527 58.5975 209.544 62.6778 226.923C64.2877 233.78 66.9223 241.147 70.0939 247.409C74.8205 256.741 85.8241 264.771 95.6463 267.822C100.817 269.428 106.794 269.573 112.094 270.245C117.564 270.938 123.047 271.864 128.541 272.374C135.593 273.029 140.318 269.229 145.723 265.031C149.862 261.818 154.469 258.722 157.471 254.385C160.074 250.626 162.054 246.058 163.603 241.755C165.702 235.925 166.907 229.234 167.2 223.068C167.495 216.893 168.463 208.939 166.503 203.059C163.742 194.778 157.775 187.593 153.029 180.371C144.913 168.02 131.5 155.406 116.573 153.24C110.686 152.385 104.611 152.258 98.8036 151.257C92.041 150.091 84.6195 153.17 78.5379 155.846C75.025 157.392 67.5045 160.017 66.1288 164.143" stroke="#2F80ED" stroke-width="8" stroke-linecap="round"/>
<rect x="4" y="4" width="232" height="312" rx="12" stroke="#2F80ED" stroke-width="8"/>
</svg>
