<?xml version="1.0" encoding="utf-8"?>
<!-- Generator: Adobe Illustrator 26.0.0, SVG Export Plug-In . SVG Version: 6.00 Build 0)  -->
<svg version="1.1" id="Layer_1" xmlns="http://www.w3.org/2000/svg" xmlns:xlink="http://www.w3.org/1999/xlink" x="0px" y="0px"
	 viewBox="0 0 243 120.4" style="enable-background:new 0 0 243 120.4;" xml:space="preserve">
<style type="text/css">
	.st0{fill:#333333;}
	.st1{opacity:0.2;}
	.st2{fill:url(#SVGID_1_);}
	.st3{fill:url(#SVGID_00000005960642141219001320000018070456641421395846_);}
	.st4{fill:#FFFFFF;}
	.st5{opacity:0.5;}
	.st6{fill:#84A1C0;}
	.st7{fill:url(#SVGID_00000016793923023698991370000006631625957431959952_);}
	.st8{fill:#7C7C7C;}
	.st9{fill:#017737;}
	.st10{fill:url(#SVGID_00000134248512512516014490000000912807108724290750_);}
	.st11{fill:none;stroke:#FFFFFF;stroke-miterlimit:10;}
	.st12{fill:#A5A5A5;}
	.st13{fill:#025E29;}
	.st14{opacity:0.2;clip-path:url(#SVGID_00000035519928351696809240000010826905352609554347_);}
	.st15{fill:none;stroke:#333333;stroke-width:1.0414;stroke-linecap:round;stroke-miterlimit:10;}
	.st16{fill:none;stroke:#E6E6E6;stroke-width:0.9024;stroke-miterlimit:10;}
	.st17{opacity:0.3;}
	.st18{fill:none;stroke:#FFFFFF;stroke-width:0.5458;stroke-miterlimit:10;}
	.st19{fill:#E6E6E6;}
	.st20{fill:url(#SVGID_00000182527759391189103870000003644403115750216592_);}
	.st21{fill:url(#SVGID_00000167391670916312016120000003375061505921461657_);}
	.st22{fill:url(#SVGID_00000164473442961603049670000014019690982831328947_);}
	.st23{fill:url(#SVGID_00000092436589032877430520000010691270130485857441_);}
	.st24{opacity:0.2;clip-path:url(#SVGID_00000049901615433087082090000014614676706592532628_);}
	.st25{opacity:0.2;clip-path:url(#SVGID_00000127009974343154253690000011228183063648380546_);}
	.st26{fill:#333333;stroke:#FFFFFF;stroke-miterlimit:10;}
	.st27{fill:none;stroke:#333333;stroke-miterlimit:10;}
	.st28{opacity:0.2;clip-path:url(#SVGID_00000162318974057419570320000006181951450027293071_);}
	.st29{opacity:0.8;fill:#FFFFFF;}
	.st30{fill:none;stroke:#E6E6E6;stroke-width:0.902;stroke-linecap:round;stroke-miterlimit:10;}
	.st31{fill:#7F7F7F;}
	
		.st32{clip-path:url(#SVGID_00000161601173430727976260000011199458902179882656_);fill-rule:evenodd;clip-rule:evenodd;fill:#FFFFFF;}
	.st33{clip-path:url(#SVGID_00000163758604602226618200000006073861788471360661_);}
	.st34{clip-path:url(#SVGID_00000127746438545642748440000007062939016098026656_);enable-background:new    ;}
	.st35{clip-path:url(#SVGID_00000157285546102757375630000000988974676494825868_);}
	
		.st36{clip-path:url(#SVGID_00000080168795903223276080000000064878122156056963_);fill-rule:evenodd;clip-rule:evenodd;fill:#FFFFFF;}
	.st37{opacity:0;clip-path:url(#SVGID_00000085941714985346589480000014165375800704160950_);}
	.st38{opacity:0;}
	.st39{clip-path:url(#SVGID_00000003065965066629490670000010378700895940022923_);}
	.st40{clip-path:url(#SVGID_00000085941714985346589480000014165375800704160950_);}
	.st41{clip-path:url(#SVGID_00000016765919075167168710000013797276147628871577_);}
	.st42{opacity:0.65;}
	.st43{opacity:0.5;fill:#333333;}
	.st44{fill:url(#SVGID_00000078739241437827858950000011480716853690556603_);}
	.st45{fill:url(#SVGID_00000071527652319289730390000015176739138301943436_);}
	.st46{fill:url(#SVGID_00000123413172245673508970000006713106297321769135_);}
	.st47{fill:url(#SVGID_00000009568068116243290800000003930834783842054845_);}
	.st48{fill:url(#SVGID_00000139272419610845447100000011714120777898957701_);}
	.st49{fill:url(#SVGID_00000046334938672035937850000002306141911043229065_);}
	.st50{fill:url(#SVGID_00000018212927772288542810000018062103430799167379_);}
	.st51{fill:url(#SVGID_00000162338753208336917080000015647564227465374383_);}
	.st52{fill:url(#SVGID_00000161596149371670522120000015689828523051312539_);}
	.st53{fill:url(#SVGID_00000064316967438198711040000018024220486310133123_);}
	.st54{fill:#2A925F;}
	.st55{fill:#34A56C;}
	.st56{fill:#55D297;}
	.st57{fill:url(#SVGID_00000127744855414607185240000011133300004994519218_);}
	.st58{fill:none;stroke:#FFFFFF;stroke-width:10;stroke-miterlimit:10;}
	.st59{fill:#FFBF57;}
	.st60{fill:url(#SVGID_00000179606416349709706260000011807913880665661626_);}
	.st61{opacity:0.2;clip-path:url(#SVGID_00000099638581504107070800000013088602893452352939_);}
	.st62{fill:url(#SVGID_00000044137138359266681970000018368298520633557409_);}
	.st63{fill:url(#SVGID_00000003080847201322446330000009138310770463954596_);}
	.st64{fill:url(#SVGID_00000041287811089709055110000010810902667126953374_);}
	.st65{fill:url(#SVGID_00000105399009922321159850000000935698685127334020_);}
	.st66{fill:url(#SVGID_00000102524151968911366930000009711359131158152600_);}
	.st67{opacity:0.2;clip-path:url(#SVGID_00000041990602695380980750000013974048512919593114_);}
	.st68{fill:url(#SVGID_00000086657873070887763510000002039002590868353464_);}
	.st69{fill:url(#SVGID_00000024689343254722906930000003342404375740949134_);}
</style>
<g>
	<g class="st1">
		<path class="st0" d="M23.1,78.5c-0.3-0.3-0.5-0.7-0.5-1.2V52.6l-6.8,5.3c-0.2,0.2-0.5,0.3-0.9,0.3c-0.5,0-1-0.3-1.4-0.8l-5.4-7
			c-0.2-0.4-0.2-0.7-0.2-0.9c0-0.3,0.1-0.6,0.2-0.8c0.1-0.3,0.3-0.5,0.6-0.6l14.7-11.4c0.4-0.3,0.9-0.4,1.3-0.4h11.5
			c0.4,0,0.8,0.2,1.2,0.5c0.3,0.3,0.5,0.7,0.5,1.2v39.5c0,0.4-0.2,0.8-0.5,1.2c-0.3,0.3-0.7,0.5-1.2,0.5h-12
			C23.9,79,23.5,78.8,23.1,78.5z"/>
		<path class="st0" d="M46.2,62.9c-0.8-0.5-1.5-1.2-2-2c-0.5-0.8-0.7-1.7-0.7-2.7s0.2-1.9,0.7-2.7c0.5-0.8,1.2-1.5,2-2
			c0.8-0.5,1.7-0.7,2.7-0.7c1,0,1.9,0.2,2.7,0.7c0.8,0.5,1.5,1.2,2,2c0.5,0.8,0.7,1.7,0.7,2.7s-0.2,1.9-0.7,2.7
			c-0.5,0.8-1.2,1.5-2,2c-0.8,0.5-1.7,0.7-2.7,0.7C47.9,63.7,47,63.4,46.2,62.9z"/>
		<path class="st0" d="M60.3,78.5c-0.3-0.3-0.5-0.7-0.5-1.2V39.1c0-0.4,0.2-0.8,0.5-1.1c0.3-0.3,0.7-0.5,1.1-0.5H73
			c0.4,0,0.8,0.2,1.1,0.5c0.3,0.3,0.5,0.7,0.5,1.1v12.4h9.6V39.1c0-0.4,0.2-0.8,0.5-1.1c0.3-0.3,0.7-0.5,1.1-0.5h11.6
			c0.4,0,0.8,0.2,1.1,0.5c0.3,0.3,0.5,0.7,0.5,1.1v38.3c0,0.4-0.2,0.8-0.5,1.1c-0.3,0.3-0.7,0.5-1.1,0.5H85.8
			c-0.4,0-0.8-0.2-1.1-0.5c-0.3-0.3-0.5-0.7-0.5-1.1V64.6h-9.6v12.8c0,0.4-0.2,0.8-0.5,1.1C73.8,78.8,73.4,79,73,79H61.4
			C60.9,79,60.6,78.8,60.3,78.5z"/>
		<path class="st0" d="M110.1,75.5c-3.5-2.7-5.4-6.7-5.6-11.9c0-1.1-0.1-2.8-0.1-5.2c0-2.4,0-4.2,0.1-5.3c0.1-3.4,1-6.3,2.7-8.8
			c1.7-2.4,4-4.3,6.9-5.6c2.9-1.3,6.3-1.9,10.2-1.9c3.9,0,7.3,0.6,10.2,1.9c2.9,1.3,5.2,3.1,6.9,5.6c1.7,2.5,2.6,5.4,2.7,8.8
			c0.1,2.2,0.1,4,0.1,5.3s0,3-0.1,5.2c-0.2,5.2-2.1,9.2-5.6,11.9c-3.5,2.7-8.2,4.1-14.2,4.1C118.3,79.6,113.6,78.2,110.1,75.5z
			 M127.4,66.8c0.8-0.8,1.2-2,1.2-3.6c0.1-2.3,0.1-4,0.1-5c0-1.1,0-2.8-0.1-4.9c0-1.6-0.5-2.8-1.2-3.6c-0.8-0.8-1.8-1.2-3.1-1.2
			s-2.4,0.4-3.1,1.2c-0.8,0.8-1.2,2-1.2,3.6c0,1.1-0.1,2.7-0.1,4.9c0,2.2,0,3.9,0.1,5c0,1.6,0.4,2.8,1.2,3.6
			c0.8,0.8,1.8,1.2,3.2,1.2C125.6,68,126.7,67.6,127.4,66.8z"/>
		<path class="st0" d="M154.4,75.5c-3.5-2.7-5.2-6.8-5.2-12.2V39.1c0-0.4,0.2-0.8,0.5-1.1c0.3-0.3,0.7-0.5,1.1-0.5h11.6
			c0.4,0,0.8,0.2,1.1,0.5c0.3,0.3,0.5,0.7,0.5,1.1v24c0,1.5,0.4,2.6,1.1,3.4c0.7,0.8,1.8,1.2,3.3,1.2c1.5,0,2.6-0.4,3.3-1.2
			c0.7-0.8,1.1-1.9,1.1-3.4v-24c0-0.4,0.2-0.8,0.5-1.1c0.3-0.3,0.7-0.5,1.1-0.5H186c0.4,0,0.8,0.2,1.1,0.5c0.3,0.3,0.5,0.7,0.5,1.1
			v24.2c0,5.4-1.7,9.5-5.2,12.2c-3.4,2.7-8.1,4.1-14,4.1C162.5,79.6,157.8,78.2,154.4,75.5z"/>
		<path class="st0" d="M194.2,78.5c-0.3-0.3-0.5-0.7-0.5-1.1V39.1c0-0.4,0.2-0.8,0.5-1.1c0.3-0.3,0.7-0.5,1.1-0.5h17.5
			c5.7,0,10.1,1.3,13.3,3.8s4.8,6.1,4.8,10.6c0,2.6-0.6,4.8-1.7,6.8c-1.1,2-2.7,3.6-4.7,4.8l7.3,13.5c0.1,0.2,0.2,0.5,0.2,0.7
			c0,0.4-0.1,0.7-0.4,0.9c-0.3,0.3-0.6,0.4-0.9,0.4h-12.2c-0.7,0-1.3-0.2-1.7-0.5c-0.4-0.3-0.7-0.7-0.9-1.1L211,66h-2.4v11.3
			c0,0.4-0.2,0.8-0.5,1.1c-0.3,0.3-0.7,0.5-1.1,0.5h-11.6C194.9,79,194.5,78.8,194.2,78.5z M212.9,54.8c0.9,0,1.5-0.3,2-0.9
			c0.5-0.6,0.7-1.3,0.7-2.2c0-0.9-0.2-1.6-0.7-2.3c-0.5-0.7-1.1-1-2-1h-4.3v6.3H212.9z"/>
	</g>
	<g>
		<path class="st0" d="M21.1,76.5c-0.3-0.3-0.5-0.7-0.5-1.2V50.6l-6.8,5.3c-0.2,0.2-0.5,0.3-0.9,0.3c-0.5,0-1-0.3-1.4-0.8l-5.4-7
			c-0.2-0.4-0.2-0.7-0.2-0.9c0-0.3,0.1-0.6,0.2-0.8c0.1-0.3,0.3-0.5,0.6-0.6l14.7-11.4c0.4-0.3,0.9-0.4,1.3-0.4h11.5
			c0.4,0,0.8,0.2,1.2,0.5c0.3,0.3,0.5,0.7,0.5,1.2v39.5c0,0.4-0.2,0.8-0.5,1.2c-0.3,0.3-0.7,0.5-1.2,0.5h-12
			C21.9,77,21.5,76.8,21.1,76.5z"/>
		<linearGradient id="SVGID_1_" gradientUnits="userSpaceOnUse" x1="41.4578" y1="56.1822" x2="71.5963" y2="56.1822">
			<stop  offset="0" style="stop-color:#22B573"/>
			<stop  offset="0.8162" style="stop-color:#009245"/>
		</linearGradient>
		<path class="st2" d="M44.2,60.9c-0.8-0.5-1.5-1.2-2-2c-0.5-0.8-0.7-1.7-0.7-2.7s0.2-1.9,0.7-2.7c0.5-0.8,1.2-1.5,2-2
			c0.8-0.5,1.7-0.7,2.7-0.7c1,0,1.9,0.2,2.7,0.7c0.8,0.5,1.5,1.2,2,2c0.5,0.8,0.7,1.7,0.7,2.7s-0.2,1.9-0.7,2.7
			c-0.5,0.8-1.2,1.5-2,2c-0.8,0.5-1.7,0.7-2.7,0.7C45.9,61.7,45,61.4,44.2,60.9z"/>
		<path class="st0" d="M58.3,76.5c-0.3-0.3-0.5-0.7-0.5-1.2V37.1c0-0.4,0.2-0.8,0.5-1.1c0.3-0.3,0.7-0.5,1.1-0.5H71
			c0.4,0,0.8,0.2,1.1,0.5c0.3,0.3,0.5,0.7,0.5,1.1v12.4h9.6V37.1c0-0.4,0.2-0.8,0.5-1.1c0.3-0.3,0.7-0.5,1.1-0.5h11.6
			c0.4,0,0.8,0.2,1.1,0.5c0.3,0.3,0.5,0.7,0.5,1.1v38.3c0,0.4-0.2,0.8-0.5,1.1c-0.3,0.3-0.7,0.5-1.1,0.5H83.8
			c-0.4,0-0.8-0.2-1.1-0.5c-0.3-0.3-0.5-0.7-0.5-1.1V62.6h-9.6v12.8c0,0.4-0.2,0.8-0.5,1.1C71.8,76.8,71.4,77,71,77H59.4
			C58.9,77,58.6,76.8,58.3,76.5z"/>
		<path class="st0" d="M108.1,73.5c-3.5-2.7-5.4-6.7-5.6-11.9c0-1.1-0.1-2.8-0.1-5.2c0-2.4,0-4.2,0.1-5.3c0.1-3.4,1-6.3,2.7-8.8
			c1.7-2.4,4-4.3,6.9-5.6c2.9-1.3,6.3-1.9,10.2-1.9c3.9,0,7.3,0.6,10.2,1.9c2.9,1.3,5.2,3.1,6.9,5.6c1.7,2.5,2.6,5.4,2.7,8.8
			c0.1,2.2,0.1,4,0.1,5.3s0,3-0.1,5.2c-0.2,5.2-2.1,9.2-5.6,11.9c-3.5,2.7-8.2,4.1-14.2,4.1C116.3,77.6,111.6,76.2,108.1,73.5z
			 M125.4,64.8c0.8-0.8,1.2-2,1.2-3.6c0.1-2.3,0.1-4,0.1-5c0-1.1,0-2.8-0.1-4.9c0-1.6-0.5-2.8-1.2-3.6c-0.8-0.8-1.8-1.2-3.1-1.2
			s-2.4,0.4-3.1,1.2c-0.8,0.8-1.2,2-1.2,3.6c0,1.1-0.1,2.7-0.1,4.9c0,2.2,0,3.9,0.1,5c0,1.6,0.4,2.8,1.2,3.6
			c0.8,0.8,1.8,1.2,3.2,1.2C123.6,66,124.7,65.6,125.4,64.8z"/>
		<path class="st0" d="M152.4,73.5c-3.5-2.7-5.2-6.8-5.2-12.2V37.1c0-0.4,0.2-0.8,0.5-1.1c0.3-0.3,0.7-0.5,1.1-0.5h11.6
			c0.4,0,0.8,0.2,1.1,0.5c0.3,0.3,0.5,0.7,0.5,1.1v24c0,1.5,0.4,2.6,1.1,3.4c0.7,0.8,1.8,1.2,3.3,1.2c1.5,0,2.6-0.4,3.3-1.2
			c0.7-0.8,1.1-1.9,1.1-3.4v-24c0-0.4,0.2-0.8,0.5-1.1c0.3-0.3,0.7-0.5,1.1-0.5H184c0.4,0,0.8,0.2,1.1,0.5c0.3,0.3,0.5,0.7,0.5,1.1
			v24.2c0,5.4-1.7,9.5-5.2,12.2c-3.4,2.7-8.1,4.1-14,4.1C160.5,77.6,155.8,76.2,152.4,73.5z"/>
		<path class="st0" d="M192.2,76.5c-0.3-0.3-0.5-0.7-0.5-1.1V37.1c0-0.4,0.2-0.8,0.5-1.1c0.3-0.3,0.7-0.5,1.1-0.5h17.5
			c5.7,0,10.1,1.3,13.3,3.8s4.8,6.1,4.8,10.6c0,2.6-0.6,4.8-1.7,6.8c-1.1,2-2.7,3.6-4.7,4.8l7.3,13.5c0.1,0.2,0.2,0.5,0.2,0.7
			c0,0.4-0.1,0.7-0.4,0.9c-0.3,0.3-0.6,0.4-0.9,0.4h-12.2c-0.7,0-1.3-0.2-1.7-0.5c-0.4-0.3-0.7-0.7-0.9-1.1L209,64h-2.4v11.3
			c0,0.4-0.2,0.8-0.5,1.1c-0.3,0.3-0.7,0.5-1.1,0.5h-11.6C192.9,77,192.5,76.8,192.2,76.5z M210.9,52.8c0.9,0,1.5-0.3,2-0.9
			c0.5-0.6,0.7-1.3,0.7-2.2c0-0.9-0.2-1.6-0.7-2.3c-0.5-0.7-1.1-1-2-1h-4.3v6.3H210.9z"/>
	</g>
	
		<linearGradient id="SVGID_00000003788526357519559200000012203470263869309375_" gradientUnits="userSpaceOnUse" x1="0" y1="103.9284" x2="243" y2="103.9284">
		<stop  offset="0.5843" style="stop-color:#22B573"/>
		<stop  offset="0.8162" style="stop-color:#009245"/>
	</linearGradient>
	<rect y="87.4" style="fill:url(#SVGID_00000003788526357519559200000012203470263869309375_);" width="243" height="33"/>
	<g>
		<g>
			<path class="st4" d="M21.2,113.2c-7,0-8.4-4.4-8.4-9.3c0-5,1.6-9.3,8.4-9.3c6,0,8.3,3.3,8.3,7.1h-4.1c-0.3-2.2-1.3-3.7-4.1-3.7
				c-3.7,0-4.4,2.7-4.4,6c0,3.4,0.7,6,4.4,6c2.9,0,3.8-1.5,4.1-3.8h4.2C29.5,110,27.3,113.2,21.2,113.2z"/>
			<path class="st4" d="M70.3,113.2c-7.2,0-8.7-4.4-8.7-9.3c0-5,1.6-9.3,8.7-9.3c7.2,0,8.7,4.4,8.7,9.4
				C79.1,108.8,77.5,113.2,70.3,113.2z M70.3,97.8c-3.9,0-4.6,2.7-4.6,6c0,3.4,0.7,6,4.6,6c4,0,4.6-2.6,4.6-6
				C74.9,100.5,74.3,97.8,70.3,97.8z"/>
			<path class="st4" d="M124.7,112.9l-1-3.2h-7.8l-1.1,3.2h-4.2l6.5-18.2h5.5l6.4,18.2H124.7z M119.8,97.8l-3,9h5.9L119.8,97.8z"/>
			<path class="st4" d="M168.9,113.2c-7,0-8.4-4.4-8.4-9.3c0-5,1.6-9.3,8.4-9.3c6,0,8.3,3.3,8.3,7.1H173c-0.3-2.2-1.3-3.7-4.1-3.7
				c-3.7,0-4.4,2.7-4.4,6c0,3.4,0.7,6,4.4,6c2.9,0,3.8-1.5,4.1-3.8h4.2C177.2,110,175,113.2,168.9,113.2z"/>
			<path class="st4" d="M222.3,112.9v-7.7h-7.4v7.7h-4.1V94.7h4.1v7.3h7.4v-7.3h4.1v18.2H222.3z"/>
		</g>
	</g>
	<g class="st5">
		<g>
			<path class="st4" d="M23.2,112.4c-7.8,0-8.7-5.5-8.7-9.6c0-6.5,2.8-9.6,8.7-9.6c7.7,0,8.5,5.1,8.5,7.3v0.2h-4.6l0-0.2
				c-0.3-2.5-1.4-3.5-3.9-3.5c-3.4,0-4.1,2.3-4.1,5.7s0.7,5.7,4.1,5.7c2.4,0,3.6-1,3.9-3.5l0-0.2h4.6v0.2
				C31.8,109.8,28.7,112.4,23.2,112.4z M23.2,93.7c-5.6,0-8.2,2.9-8.2,9.1c0,6.3,2.5,9.1,8.2,9.1c6.5,0,8-3.5,8-6.6h-3.7
				c-0.3,1.8-1,3.8-4.3,3.8c-4.1,0-4.6-3-4.6-6.2c0-3.1,0.5-6.2,4.6-6.2c2.6,0,4,1.2,4.4,3.7h3.7C31.1,96.1,28.2,93.7,23.2,93.7z"/>
			<path class="st4" d="M72.3,112.4c-8,0-9-5.5-9-9.6c0-4.1,0.9-9.6,9-9.6c8.1,0,9,5.5,9,9.6C81.3,106.9,80.4,112.4,72.3,112.4z
				 M72.3,93.7c-5.8,0-8.5,2.9-8.5,9.1c0,6.3,2.6,9.1,8.5,9.1c5.9,0,8.5-2.8,8.5-9.1C80.8,96.5,78.2,93.7,72.3,93.7z M72.3,109
				c-4.3,0-4.8-3-4.8-6.2s0.6-6.2,4.8-6.2c4.3,0,4.9,3,4.9,6.3C77.2,106.1,76.6,109,72.3,109z M72.3,97.1c-3.6,0-4.3,2.3-4.3,5.7
				c0,3.5,0.7,5.7,4.3,5.7c3.6,0,4.4-2.2,4.4-5.7C76.7,99.3,76,97.1,72.3,97.1z"/>
			<path class="st4" d="M131.3,112.2h-4.8l-1-3.2H118l-1.1,3.2h-4.8l6.6-18.7h5.9L131.3,112.2z M126.8,111.7h3.7l-6.3-17.7h-5.1
				l-6.3,17.7h3.7l1.1-3.2h8.2L126.8,111.7z M125,106h-6.6l3.3-10L125,106z M119.1,105.5h5.2l-2.6-7.9L119.1,105.5z"/>
			<path class="st4" d="M170.9,112.4c-7.8,0-8.7-5.5-8.7-9.6c0-6.5,2.8-9.6,8.7-9.6c7.7,0,8.5,5.1,8.5,7.3v0.2h-4.6l0-0.2
				c-0.3-2.5-1.4-3.5-3.9-3.5c-3.4,0-4.1,2.3-4.1,5.7s0.7,5.7,4.1,5.7c2.4,0,3.6-1,3.9-3.5l0-0.2h4.6v0.2
				C179.4,109.8,176.4,112.4,170.9,112.4z M170.9,93.7c-5.6,0-8.2,2.9-8.2,9.1c0,6.3,2.5,9.1,8.2,9.1c6.5,0,8-3.5,8-6.6h-3.7
				c-0.3,1.8-1,3.8-4.3,3.8c-4.1,0-4.6-3-4.6-6.2c0-3.1,0.5-6.2,4.6-6.2c2.6,0,4,1.2,4.4,3.7h3.7C178.8,96.1,175.9,93.7,170.9,93.7z
				"/>
			<path class="st4" d="M228.6,112.2h-4.6v-7.7h-6.9v7.7h-4.6V93.4h4.6v7.3h6.9v-7.3h4.6V112.2z M224.6,111.7h3.6V93.9h-3.6v7.3
				h-7.9v-7.3h-3.6v17.7h3.6V104h7.9V111.7z"/>
		</g>
	</g>
	<g>
		<circle class="st4" cx="47.1" cy="103.2" r="1"/>
		<circle class="st4" cx="94.6" cy="103.7" r="1"/>
		<circle class="st4" cx="142.1" cy="104.2" r="1"/>
		<circle class="st4" cx="194.6" cy="104.7" r="1"/>
	</g>
	<g>
		<g>
			<path class="st0" d="M122.2,22.4c-0.8,0-1.5-0.7-1.5-1.5v-7.5c0-0.8,0.7-1.5,1.5-1.5s1.5,0.7,1.5,1.5v7.5
				C123.7,21.8,123,22.4,122.2,22.4z"/>
		</g>
		<g>
			<line class="st6" x1="97.3" y1="27.6" x2="93.5" y2="21.1"/>
			<path class="st0" d="M97.3,29.1c-0.5,0-1-0.3-1.3-0.8l-3.8-6.5c-0.4-0.7-0.2-1.6,0.5-2c0.7-0.4,1.6-0.2,2,0.5l3.8,6.5
				c0.4,0.7,0.2,1.6-0.5,2C97.8,29,97.5,29.1,97.3,29.1z"/>
		</g>
		<g>
			<line class="st6" x1="147.1" y1="27.6" x2="150.9" y2="21.1"/>
			<path class="st0" d="M147.1,29.1c-0.3,0-0.5-0.1-0.7-0.2c-0.7-0.4-1-1.3-0.5-2l3.8-6.5c0.4-0.7,1.3-1,2-0.5c0.7,0.4,1,1.3,0.5,2
				l-3.8,6.5C148.1,28.8,147.6,29.1,147.1,29.1z"/>
		</g>
	</g>
	
		<linearGradient id="SVGID_00000081620211851249466410000000508965206037910166_" gradientUnits="userSpaceOnUse" x1="72.6457" y1="14.27" x2="171.6113" y2="14.27">
		<stop  offset="0" style="stop-color:#22B573"/>
		<stop  offset="0.8162" style="stop-color:#009245"/>
	</linearGradient>
	<path style="fill:url(#SVGID_00000081620211851249466410000000508965206037910166_);" d="M74.1,28.5c-0.3,0-0.6-0.1-0.8-0.3
		c-0.7-0.5-0.9-1.4-0.4-2.1C84,9.8,102.4,0,122.2,0c19.7,0,38.1,9.7,49.2,26c0.5,0.7,0.3,1.6-0.4,2.1c-0.7,0.5-1.6,0.3-2.1-0.4
		C158.3,12.2,140.9,3,122.2,3c-18.8,0-36.3,9.3-46.8,24.9C75.1,28.3,74.6,28.5,74.1,28.5z"/>
</g>
</svg>
