<svg width="24" height="24" viewBox="0 0 24 24" fill="none" xmlns="http://www.w3.org/2000/svg">
<circle opacity="0.4" cx="14.5127" cy="11" r="8" fill="#2F7CF3"/>
<path d="M1 12.5654C3.88718 12.1096 6.83752 11.3962 9.73018 11.1447C10.5233 11.0757 11.2237 11.1151 12.0132 11.3407C13.0885 11.6479 12.2377 10.8232 11.7388 10.2531C11.0014 9.4103 10.411 8.46967 9.66159 7.63695C9.50816 7.46647 9.262 7.00208 9.01491 6.93148C8.81804 6.87523 8.61066 6.85377 8.44661 6.70612C8.14611 6.43567 9.44884 7.37616 9.54401 7.45078C10.9592 8.56038 12.4079 9.62291 13.816 10.743C14.0323 10.915 14.7316 11.1846 14.8938 11.3701C14.9826 11.4715 14.5122 11.6192 14.5019 11.6248C14.1226 11.8296 13.8185 12.1248 13.4829 12.3891C13.0502 12.7296 12.3627 12.9714 12.0719 13.4473C11.7782 13.9279 11.4099 14.3164 11.2293 14.8582" stroke="#2F7CF3" stroke-linecap="round"/>
<path d="M4.5127 9.62221C4.79851 6.33905 7.14381 2.81633 9.94394 2.10155C10.8081 1.88096 11.9287 2.08847 12.8247 2.08847C13.6066 2.08847 14.5378 2.39564 15.2727 2.67705C16.8082 3.26498 18.536 3.53198 19.9525 4.42969C21.6298 5.49269 22.0711 8.00513 22.3891 10.0146C22.7794 12.4804 22.2197 14.978 21.0683 17.1036C20.5178 18.1199 19.8153 18.4248 18.8594 18.7516C16.8448 19.4404 14.7888 20.0769 12.7336 20.5828C12.051 20.7508 10.3656 21.3324 9.75038 20.7397C8.32476 19.3662 6.35727 16.601 6.35727 14.3308" stroke="#2F7CF3" stroke-linecap="round"/>
</svg>
