<svg width="240" height="320" viewBox="0 0 240 320" fill="none" xmlns="http://www.w3.org/2000/svg">
<path d="M81.8326 77.7973C80.9436 87.2435 80.4173 96.6437 78.4624 105.953C75.4973 120.072 69.6013 133.061 65.8239 146.888C61.8557 161.413 87.6832 156.156 95.6647 156.156C100.569 156.156 135.472 159.951 137.442 152.786C138.398 149.31 137.442 145.577 137.442 141.973C137.442 130.602 137.275 119.216 137.582 107.849C137.887 96.561 139.116 85.2396 140.251 74.0057C141.56 61.0455 147.681 94.2787 147.834 95.0699C155.963 137.342 157.009 180.55 161.455 223.28C161.987 228.392 162.214 233.75 163.702 238.587C165.487 244.389 162.719 251.35 162.719 257.264" stroke="#2F80ED" stroke-width="8" stroke-linecap="round"/>
<rect x="4" y="4" width="232" height="312" rx="12" stroke="#2F80ED" stroke-width="8"/>
</svg>
