<svg width="24" height="24" viewBox="0 0 24 24" fill="none" xmlns="http://www.w3.org/2000/svg">
<path opacity="0.6" d="M8.5 23L8 19L14.5 18.5L15 6H21.5C22.7 7.2 21 17.8333 20 23H8.5Z" fill="#FF8585"/>
<path d="M13.3168 1.89392C13.2643 2.27582 10.8043 1.82643 10.5731 1.78701C8.72454 1.47187 6.84243 1.34358 4.96815 1.16929C4.53024 1.12857 2.14609 0.712117 2.14609 1.35936C2.14609 1.83555 2.26367 2.3243 2.26367 2.81456C2.26367 3.65743 2.43941 4.49278 2.3682 5.35078C2.19396 7.44982 2.0285 9.51804 2.0285 11.623C2.0285 13.6065 1.91117 15.5274 2.15262 17.5032C2.17258 17.6666 2.21346 18.0013 2.41392 18.0378C3.67644 18.2674 4.95026 18.5338 6.22894 18.6733C7.71595 18.8356 9.27761 19 10.7691 19C11.2595 19 11.651 18.8615 12.1344 18.7921C12.475 18.7432 12.9626 18.7709 13.271 18.6199C13.7908 18.3654 13.9988 18.2684 14.0223 17.6933C14.0616 16.7283 14.1177 15.7732 14.1399 14.8066C14.1811 13.0056 14.7863 11.2262 14.8454 9.41347C14.9049 7.58686 15.2212 5.60683 14.7278 3.81242C14.6282 3.4502 14.375 2.95893 14.375 2.58886C14.375 2.3487 14.0194 2.10243 13.9047 1.89392" stroke="#2F7CF3" stroke-linecap="round"/>
<path d="M16.908 6C17.9198 6.09315 18.9136 6 19.9651 6C20.2093 6 20.3542 6.05367 20.5902 6.11258C20.8285 6.1721 21.4585 6.10914 21.65 6.25018C22.2207 6.67057 21.9217 7.92251 21.9217 8.60191C21.9217 11.1515 21.433 13.7128 21.2152 16.245C21.068 17.9562 20.812 19.6812 20.3999 21.3613C20.2854 21.8284 20.3408 22.3807 20.2029 22.8249C20.1517 22.9899 19.407 23 19.2586 23C16.6689 23 14.0668 22.8874 11.4663 22.8874C10.4472 22.8874 9.42817 22.8874 8.40912 22.8874C7.7275 22.8874 8.10341 21.7104 8.10341 21.3113" stroke="#FF3C36" stroke-linecap="round"/>
<path d="M5.26507 7.45079C5.80358 6.70286 7.7709 4.58722 8.65524 5.47156C9.62737 6.44369 9.17889 9.26296 8.79241 10.3315C8.27056 11.7742 7.59346 13.1569 6.49964 14.2507C6.16686 14.5835 5.68856 15.2023 5.26507 15.4265C4.61055 15.773 5.75618 14.6237 5.97054 14.5055C7.45812 13.6847 8.94803 15.1452 10.2034 15.5637" stroke="#2F7CF3" stroke-linecap="round"/>
</svg>
