<svg width="240" height="320" viewBox="0 0 240 320" fill="none" xmlns="http://www.w3.org/2000/svg">
<path d="M63.0646 88.4173C66.4501 85.314 70.463 83.4965 74.7213 81.7564C91.141 75.0464 108.361 69.863 125.965 67.5262C130.487 66.926 144.823 63.0196 149.202 66.1638C154.292 69.8177 158.961 75.5995 163.508 79.9398C174.971 90.8818 171.962 109.612 167.671 123.539C160.495 146.831 146.825 166.553 133.307 186.514C116.728 210.995 92.4295 235.886 66.2437 250.55C63.9817 251.817 52.4872 254.851 60.0369 254.335C84.2608 252.678 108.878 253.042 133.08 254.789C142.723 255.485 152.5 256.238 161.162 260.087" stroke="#EB5757" stroke-width="8" stroke-linecap="round"/>
<rect x="4" y="4" width="232" height="312" rx="12" stroke="#EB5757" stroke-width="8"/>
</svg>
