<svg width="240" height="320" viewBox="0 0 240 320" fill="none" xmlns="http://www.w3.org/2000/svg">
<path d="M161 63C136.957 63 113.149 63.609 89.1412 65.4397C84.1737 65.8185 70.5495 62.038 71.0706 71.3647C71.7565 83.6419 72.0288 95.7572 74.3176 107.786C77.713 125.63 83.4532 143.809 84.7647 162.156C85.0872 166.667 87.7151 163.505 90.1294 162.33C98.4197 158.296 113.649 150.337 123.024 154.837C138.704 162.364 146.192 175.431 149.635 195.266C151.091 203.649 153.334 212.786 150.482 221.057C145.892 234.373 135.278 245.697 124.718 251.553C102.383 263.94 76.7018 259.047 53 259.047" stroke="#EB5757" stroke-width="8" stroke-linecap="round"/>
<rect x="4" y="4" width="232" height="312" rx="12" stroke="#EB5757" stroke-width="8"/>
</svg>
