<svg width="240" height="320" viewBox="0 0 240 320" fill="none" xmlns="http://www.w3.org/2000/svg">
<path d="M55 228.493C55 211.416 65.7787 192.648 71.2317 176.895C76.5501 161.531 79.8943 142.528 87.8933 128.308C91.3519 122.159 91.8634 115.328 94.8805 108.959C99.9839 98.1848 105.24 87.5006 110.145 76.7102C111.314 74.1383 122.126 58.9653 122.722 64.0259C123.188 67.9872 127.519 70.6172 128.419 74.6678C129.654 80.2276 132.327 87.1354 135.406 91.9745C140.375 99.7831 141.313 113.531 146.908 120.246C150.39 124.424 150.77 132.495 152.175 137.552C156.589 153.442 169.929 167.531 171.094 184.42C171.748 193.901 174.946 204.709 177.006 213.981C178.259 219.62 180.191 235.943 184.638 238.167" stroke="#EB5757" stroke-width="8" stroke-linecap="round"/>
<path d="M72.4141 158.836C102.277 157.414 131.514 153.031 161.42 153.031" stroke="#EB5757" stroke-width="8" stroke-linecap="round"/>
<path d="M77 280C77.9366 273.831 93.3998 242.311 94.5 256C94.824 260.031 102 274.5 102 282" stroke="#EB5757" stroke-width="4" stroke-linecap="round"/>
<path d="M80.5 271.935C86.4976 271.39 91.8116 270 97.9141 270" stroke="#EB5757" stroke-width="4" stroke-linecap="round"/>
<path d="M118.988 256.297C109.291 256.297 108.827 263.503 109.313 271.776C109.796 279.976 125.379 277.581 130.597 277.581" stroke="#EB5757" stroke-width="4" stroke-linecap="round"/>
<path d="M138.988 255C138.988 272.186 130.396 282 154.5 282" stroke="#EB5757" stroke-width="4" stroke-linecap="round"/>
<path d="M134.5 270C137.907 266.971 144.954 265 149.5 265" stroke="#EB5757" stroke-width="4" stroke-linecap="round"/>
<path d="M136.5 257C137.204 251.394 152.005 252.021 156.5 252.021" stroke="#EB5757" stroke-width="4" stroke-linecap="round"/>
<rect x="4" y="4" width="232" height="312" rx="12" stroke="#EB5757" stroke-width="8"/>
</svg>
