<svg width="240" height="320" viewBox="0 0 240 320" fill="none" xmlns="http://www.w3.org/2000/svg">
<path d="M75.1605 81.5888C75.709 76.6516 86.9631 72.5004 90.1862 71.0567C102.904 65.3601 119.524 67.1029 133.017 66.7035C137.672 66.5657 148.808 64.3996 153.8 66.7035C162.123 70.5448 153.237 95.4929 151.413 99.5636C140.992 122.82 120.975 132.194 101.069 145.132C100.305 145.629 121.364 146.59 123.748 148.222C136.038 156.631 141.064 175.983 141.513 189.227C141.839 198.854 142.231 221.557 131.753 227.844C120.213 234.768 106.234 238.077 93.4863 241.957C87.9307 243.648 84.0459 246.897 79.3031 243.221C73.0387 238.366 66.2231 229.429 58.7304 226.931" stroke="#EB5757" stroke-width="8" stroke-linecap="round"/>
<rect x="4" y="4" width="232" height="312" rx="12" stroke="#EB5757" stroke-width="8"/>
</svg>
