<svg width="240" height="320" viewBox="0 0 240 320" fill="none" xmlns="http://www.w3.org/2000/svg">
<path d="M166.301 95.4881C160.241 94.7306 153.635 87.8682 148.378 85.0333C141.399 81.269 133.489 79.2811 126.195 76.2038C120.755 73.9087 115.306 70.7665 109.546 69.395C102.083 67.618 95.0284 67.7502 88.9881 72.5578C82.8395 77.4516 77.2392 83.3403 71.6805 88.8989C52.8474 107.732 48.0205 139.823 56.1301 164.718C60.5192 178.192 69.5641 188.467 80.2904 197.488C92.2656 207.56 103.926 220.8 119.781 224.636C136.993 228.8 152.53 222.516 167.619 214.972C176.142 210.71 182.084 200.756 186.024 192.481C192.82 178.211 194.766 161.887 194.766 146.137C194.766 138.972 191.011 131.608 189.67 124.524C188.661 119.189 185.896 113.823 183.345 109.062C180.059 102.928 173.232 99.8621 170.254 93.9067" stroke="#828282" stroke-width="8" stroke-linecap="round"/>
<path d="M128.347 188.791C128.347 184.607 121.665 191.057 127.205 192.568C129.292 193.138 130.719 193.081 130.719 190.767C130.719 188.204 128.881 188.705 126.766 188" stroke="#828282" stroke-width="8" stroke-linecap="round"/>
<path d="M126.766 161.907C126.766 157.104 126.766 152.301 126.766 147.499C126.766 143.493 125.564 136.961 129.533 134.232C136.874 129.186 147.475 132.262 151.102 122.723C152.517 119.001 154.975 111.084 150.443 108.535C142.305 103.957 135.418 99.4416 125.712 99.4416C121.744 99.4416 115.902 98.648 112.577 101.418C110.738 102.951 109.076 104.382 106.998 105.767" stroke="#828282" stroke-width="8" stroke-linecap="round"/>
<rect x="4" y="4" width="232" height="312" rx="12" stroke="#828282" stroke-width="8"/>
</svg>
