<svg width="240" height="320" viewBox="0 0 240 320" fill="none" xmlns="http://www.w3.org/2000/svg">
<path d="M32.7965 55.7658C51.3363 55.3347 69.8069 54.4681 88.3804 54.4442C102.723 54.4257 117.066 54.411 131.408 54.4442C133.643 54.4493 145.268 54.4905 147.415 54.591C148.927 54.6617 156.702 54.9418 158.65 56.5735C164.401 61.3919 147.798 80.8096 146.02 83.2274C133.755 99.9034 119.571 115.045 107.178 131.615C96.2102 146.28 88.695 161.473 82.0657 178.315C80.4261 182.48 78.9253 186.335 77.9538 190.724C75.944 199.803 72.8526 208.082 69.9503 216.864C66.5275 227.221 65.267 237.084 64.3699 247.85C63.9444 252.956 63.3091 261.776 60.5517 265.913" stroke="#2F80ED" stroke-width="8" stroke-linecap="round"/>
<path d="M56.5867 158.196C80.4498 158.196 104.313 158.792 128.178 158.857C150.186 158.916 173.157 157.333 195.069 160.032C197.438 160.323 194.581 161.298 194.041 161.5" stroke="#2F80ED" stroke-width="8" stroke-linecap="round"/>
<rect x="4" y="4" width="232" height="312" rx="12" stroke="#2F80ED" stroke-width="8"/>
</svg>
